<?xml version="1.0" encoding="UTF-8" standalone="no"?>
<svg width="29.6333mm" height="35.2778mm"
 viewBox="60 -103 84 100"
 xmlns="http://www.w3.org/2000/svg" xmlns:xlink="http://www.w3.org/1999/xlink"  version="1.2" baseProfile="tiny">
<title>puff (Chart)</title>
<desc>This file was generated by Crochet Charts</desc>
<defs>
</defs>
<g fill="none" stroke="black" stroke-width="1" fill-rule="evenodd" stroke-linecap="square" stroke-linejoin="bevel" >

<g fill="none" stroke="#000000" stroke-opacity="1" stroke-width="1" stroke-linecap="square" stroke-linejoin="bevel" transform="matrix(1,0,0,1,0,0)"
font-family="MS Shell Dlg 2" font-size="10" font-weight="400" font-style="normal" 
>
</g>

<g fill="none" stroke="#000000" stroke-opacity="1" stroke-width="1" stroke-linecap="square" stroke-linejoin="bevel" transform="matrix(1,0,0,1,0,0)"
font-family="MS Shell Dlg 2" font-size="10" font-weight="400" font-style="normal" 
>
</g>

<g fill="#ffffff" fill-opacity="1" stroke="none" transform="matrix(0.761905,0,0,0.761905,14.2857,-24.5238)"
font-family="MS Shell Dlg 2" font-size="10" font-weight="400" font-style="normal" 
>
<path vector-effect="non-scaling-stroke" fill-rule="evenodd" d="M60,-103 L144,-103 L144,-3 L60,-3 L60,-103"/>
</g>

<g fill="none" stroke="#000000" stroke-opacity="1" stroke-width="1" stroke-linecap="square" stroke-linejoin="bevel" transform="matrix(0.761905,0,0,0.761905,67.619,-95.381)"
font-family="MS Shell Dlg 2" font-size="10" font-weight="400" font-style="normal" 
>
</g>

<g fill="none" stroke="none" transform="matrix(0.761905,0,0,0.761905,67.619,-83.1905)"
font-family="MS Shell Dlg 2" font-size="10" font-weight="400" font-style="normal" 
>
<path vector-effect="non-scaling-stroke" fill-rule="nonzero" d="M20.5378,-12.8924 L45.7748,-12.8924"/>
</g>

<g fill="none" stroke="#000000" stroke-opacity="1" stroke-width="4" stroke-linecap="round" stroke-linejoin="round" transform="matrix(0.761905,0,0,0.761905,67.619,-83.1905)"
font-family="MS Shell Dlg 2" font-size="10" font-weight="400" font-style="normal" 
>
<path vector-effect="none" fill-rule="nonzero" d="M20.5378,-12.8924 L45.7748,-12.8924"/>
</g>

<g fill="none" stroke="none" transform="matrix(0.761905,0,0,0.761905,67.619,-83.1905)"
font-family="MS Shell Dlg 2" font-size="10" font-weight="400" font-style="normal" 
>
<path vector-effect="non-scaling-stroke" fill-rule="nonzero" d="M31.3038,-12.5438 C13.7489,7.55614 4.96858,37.8008 32.6118,61.7869 "/>
</g>

<g fill="none" stroke="#000000" stroke-opacity="1" stroke-width="4" stroke-linecap="round" stroke-linejoin="round" transform="matrix(0.761905,0,0,0.761905,67.619,-83.1905)"
font-family="MS Shell Dlg 2" font-size="10" font-weight="400" font-style="normal" 
>
<path vector-effect="none" fill-rule="nonzero" d="M31.3038,-12.5438 C13.7489,7.55614 4.96858,37.8008 32.6118,61.7869 "/>
</g>

<g fill="none" stroke="none" transform="matrix(0.761905,0,0,0.761905,67.619,-83.1905)"
font-family="MS Shell Dlg 2" font-size="10" font-weight="400" font-style="normal" 
>
<path vector-effect="non-scaling-stroke" fill-rule="nonzero" d="M33.0784,-12.9362 L33.2342,60.0951"/>
</g>

<g fill="none" stroke="#000000" stroke-opacity="1" stroke-width="4" stroke-linecap="round" stroke-linejoin="round" transform="matrix(0.761905,0,0,0.761905,67.619,-83.1905)"
font-family="MS Shell Dlg 2" font-size="10" font-weight="400" font-style="normal" 
>
<path vector-effect="none" fill-rule="nonzero" d="M33.0784,-12.9362 L33.2342,60.0951"/>
</g>

<g fill="none" stroke="none" transform="matrix(-0.761905,0,0,0.761905,118.218,-83.1905)"
font-family="MS Shell Dlg 2" font-size="10" font-weight="400" font-style="normal" 
>
<path vector-effect="non-scaling-stroke" fill-rule="nonzero" d="M31.3038,-12.5438 C13.7489,7.55614 4.96858,37.8008 32.6118,61.7869 "/>
</g>

<g fill="none" stroke="#000000" stroke-opacity="1" stroke-width="4" stroke-linecap="round" stroke-linejoin="round" transform="matrix(-0.761905,0,0,0.761905,118.218,-83.1905)"
font-family="MS Shell Dlg 2" font-size="10" font-weight="400" font-style="normal" 
>
<path vector-effect="none" fill-rule="nonzero" d="M31.3038,-12.5438 C13.7489,7.55614 4.96858,37.8008 32.6118,61.7869 "/>
</g>

<g fill="none" stroke="#000000" stroke-opacity="1" stroke-width="1" stroke-linecap="square" stroke-linejoin="bevel" transform="matrix(0.761905,0,0,0.761905,67.619,-95.381)"
font-family="MS Shell Dlg 2" font-size="10" font-weight="400" font-style="normal" 
>
</g>

<g fill="none" stroke="#000000" stroke-opacity="1" stroke-width="1" stroke-linecap="square" stroke-linejoin="bevel" transform="matrix(0.761905,0,0,0.761905,67.619,-95.381)"
font-family="MS Shell Dlg 2" font-size="10" font-weight="400" font-style="normal" 
>
</g>

<g fill="none" stroke="#000000" stroke-opacity="1" stroke-width="1" stroke-linecap="square" stroke-linejoin="bevel" transform="matrix(1,0,0,1,0,0)"
font-family="MS Shell Dlg 2" font-size="10" font-weight="400" font-style="normal" 
>
</g>
</g>
</svg>
